<svg xmlns="http://www.w3.org/2000/svg" viewBox="0 0 192 192"><rect width="192" height="192" rx="42" fill="#ffffff"/><circle cx="96" cy="96" r="72" fill="#4d7187"/><path d="M40 66c18-7 36-7 56 5v74c-20-12-38-12-56-5zM152 66c-18-7-36-7-56 5v74c20-12 38-12 56-5z" fill="#f6fafb"/><path d="M54 94h28M54 112h28M110 94h28M110 112h28" stroke="#86a3b3" stroke-width="7" stroke-linecap="round"/><path d="M96 64c-8-12-19-17-32-17 9 5 14 12 16 20-10-3-20-1-29 7 17 1 30 8 39 20 9-12 22-19 39-20-9-8-19-10-29-7 2-8 7-15 16-20-13 0-24 5-32 17z" fill="#dfeef3"/></svg>
